<svg xmlns="http://www.w3.org/2000/svg" width="180" height="120" viewBox="0 0 180 120">
  <defs>
    <linearGradient id="deskTop" x1="0" x2="1" y1="0" y2="1">
      <stop offset="0" stop-color="#fff7dd"/>
      <stop offset="1" stop-color="#d9b974"/>
    </linearGradient>
    <linearGradient id="screen" x1="0" x2="1" y1="0" y2="1">
      <stop offset="0" stop-color="#203b32"/>
      <stop offset="1" stop-color="#101816"/>
    </linearGradient>
    <filter id="shadow" x="-20%" y="-20%" width="140%" height="160%">
      <feDropShadow dx="0" dy="8" stdDeviation="5" flood-color="#243229" flood-opacity=".28"/>
    </filter>
  </defs>
  <ellipse cx="92" cy="102" rx="72" ry="12" fill="#26352d" opacity=".18"/>
  <g filter="url(#shadow)">
    <path d="M28 44h124c8 0 13 5 13 12v34c0 7-5 12-13 12H28c-8 0-13-5-13-12V56c0-7 5-12 13-12Z" fill="url(#deskTop)" stroke="#7f6f49" stroke-width="3"/>
    <path d="M23 50h134v15H23z" fill="#fffdf2" opacity=".32"/>
    <rect x="79" y="20" width="66" height="36" rx="5" fill="url(#screen)"/>
    <rect x="87" y="27" width="46" height="5" rx="2.5" fill="#58c081" opacity=".78"/>
    <rect x="95" y="61" width="34" height="7" rx="3.5" fill="#5f543f" opacity=".66"/>
    <rect x="39" y="72" width="34" height="10" rx="5" fill="#caa64d" opacity=".78"/>
  </g>
</svg>
