<svg xmlns="http://www.w3.org/2000/svg" width="96" height="96" viewBox="0 0 96 96">
  <defs>
    <linearGradient id="suit" x1="0" x2="1" y1="0" y2="1">
      <stop offset="0" stop-color="#f0c66a"/>
      <stop offset="1" stop-color="#9c7130"/>
    </linearGradient>
    <filter id="soft" x="-20%" y="-20%" width="140%" height="150%">
      <feDropShadow dx="0" dy="5" stdDeviation="4" flood-color="#1b2b22" flood-opacity=".28"/>
    </filter>
  </defs>
  <ellipse cx="48" cy="82" rx="28" ry="7" fill="#26352d" opacity=".16"/>
  <g filter="url(#soft)">
    <circle cx="48" cy="32" r="20" fill="#ffe0b6"/>
    <path d="M24 77c2-19 13-29 24-29s22 10 24 29H24Z" fill="url(#suit)"/>
    <path d="M31 28c7-14 27-17 36 0-12-5-22-5-36 0Z" fill="#24342d"/>
    <circle cx="40" cy="34" r="3" fill="#24342d"/>
    <circle cx="56" cy="34" r="3" fill="#24342d"/>
    <path d="M39 45c5 4 13 4 18 0" fill="none" stroke="#9c5b47" stroke-width="3" stroke-linecap="round"/>
    <path d="M40 51h16l-8 13Z" fill="#fff8e5" opacity=".78"/>
  </g>
</svg>
