<svg xmlns="http://www.w3.org/2000/svg" width="96" height="96" viewBox="0 0 96 96">
  <defs>
    <linearGradient id="body" x1="0" x2="1" y1="0" y2="1">
      <stop offset="0" stop-color="#48a66f"/>
      <stop offset="1" stop-color="#286d4a"/>
    </linearGradient>
    <filter id="soft" x="-20%" y="-20%" width="140%" height="150%">
      <feDropShadow dx="0" dy="5" stdDeviation="4" flood-color="#1b2b22" flood-opacity=".28"/>
    </filter>
  </defs>
  <ellipse cx="48" cy="82" rx="28" ry="7" fill="#26352d" opacity=".16"/>
  <g filter="url(#soft)">
    <circle cx="48" cy="34" r="20" fill="#ffe0b6"/>
    <path d="M25 76c2-18 12-27 23-27s21 9 23 27H25Z" fill="url(#body)"/>
    <path d="M30 31c5-17 30-20 38-1-9-4-25-4-38 1Z" fill="#25362e"/>
    <circle cx="40" cy="35" r="3" fill="#25362e"/>
    <circle cx="56" cy="35" r="3" fill="#25362e"/>
    <path d="M39 46c6 5 13 5 19 0" fill="none" stroke="#9c5b47" stroke-width="3" stroke-linecap="round"/>
    <rect x="32" y="58" width="32" height="9" rx="4.5" fill="#fff7df" opacity=".52"/>
  </g>
</svg>
